<svg width="419.53" height="136.06" version="1.1" viewBox="0 0 111 36" xmlns="http://www.w3.org/2000/svg">
 <path transform="scale(.26458)" d="m12.303 8.7969 40.703 105.21 13.633-38.783-24.77-66.432zm85.631 0-44.928 119.62h29.377l45.887-119.62zm51.648 0v26.111h18.623v-26.111zm25.535 0v93.504h-25.535v26.111h54.527v-93.504h26.496v-26.111zm82.945 0c-0.768 0-1.9197 0.57575-3.2637 1.3438-1.344 0.96-2.6898 2.1117-3.8418 3.2637-1.152 1.344-2.3037 2.6872-3.2637 4.0312s-1.3438 2.4976-1.3438 3.2656v46.08l46.465 21.504v40.127h17.279c0.768 0 1.7283-0.38375 3.0723-1.3438 1.344-0.768 2.6878-1.9197 3.8398-3.2637 1.152-1.152 2.3037-2.4958 3.2637-3.8398s1.5371-2.497 1.5371-3.457v-44.736l-46.465-22.078v-40.896zm24.191 0v25.727h10.561v11.328h28.992v-25.15c0-0.768-0.57711-1.9216-1.5371-3.2656s-2.1117-2.6872-3.2637-4.0312c-1.152-1.152-2.4958-2.3037-3.8398-3.2637-1.344-0.768-2.3043-1.3438-3.0723-1.3438zm67.008 0c-0.768 0-1.9197 0.57575-3.2637 1.3438-1.344 0.96-2.6878 2.1117-3.8398 3.2637-1.152 1.344-2.3037 2.6872-3.2637 4.0312s-1.3457 2.4976-1.3457 3.2656v46.08l46.465 21.504v40.127h17.279c0.768 0 1.7283-0.38375 3.0723-1.3438 1.344-0.768 2.6878-1.9197 3.8398-3.2637 1.152-1.152 2.3037-2.4958 3.2637-3.8398s1.5371-2.497 1.5371-3.457v-44.736l-46.465-22.078v-40.896zm24.191 0v25.727h10.561v11.328h28.992v-25.15c0-0.768-0.57711-1.9216-1.5371-3.2656s-2.1117-2.6872-3.2637-4.0312c-1.152-1.152-2.4958-2.3037-3.8398-3.2637-1.344-0.768-2.3043-1.3438-3.0723-1.3438zm-367.29 2.4961v117.12h29.184v-42.24zm127.68 0.57617-28.992 74.879v41.664h28.992zm112.51 79.486v25.152c0 0.96 0.38375 2.113 1.3438 3.457s2.1117 2.6878 3.2637 3.8398c1.152 1.344 2.4978 2.4957 3.8418 3.2637 1.344 0.96 2.4957 1.3438 3.2637 1.3438h27.84v-25.729h-10.561v-11.328zm91.199 0v25.152c0 0.96 0.3857 2.113 1.3457 3.457s2.1117 2.6878 3.2637 3.8398c1.152 1.344 2.4958 2.4957 3.8398 3.2637 1.344 0.96 2.4957 1.3438 3.2637 1.3438h27.84v-25.729h-10.561v-11.328zm-126.33 10.945v26.111h19.391v-26.111z" style="shape-inside:url(#rect12);white-space:pre" fill="#adff2f"/>
</svg>
