<svg version="1.1" viewBox="0 0 90 31" xmlns="http://www.w3.org/2000/svg">
 <path d="m4.9671 30.869h77v-2c1-0.3334 3.3-1.2 4.5-2s2.8333-2.3334 3.5-3v-3h-13v-0.5l5.5-3.5001-0.5-0.49995-5.5 2.5h-5v2h-1.6875v-2.5001l5.1875-2.5-0.5-0.49995-4 1.5-5.5-5e-5v3.0001h-2v-6h-2.5v2h-6.5c-0.6667-1-1.8-2-3-2h-2.5v7.0001h-4v-7.5h-4.5v4.5h-1v-10c-1.118-1.201e-4 -3 0-4.5 0v9.0001c-1.1667-0.16666-3.8-0.2-5 1-1.2 1.2-1.5 2.5-1.5 3h-1.5v-4.0001h-5l-5-1.5-0.5 0.49995 5.5 2.5v2.5001h-1.5v-2.0001h-5.5l-4.5-2-0.5 0.49995 4.5 2.5v1.0001h-14l5.5 7z" fill="#adff2f"/>
 <path d="m48.735 30.872-23.315-11.912 17.289 2.5596-10.604-15.006 14.538 8.1355-0.99516-13.326 8.6774 11.475 6.8619-12.235-1.6739 15.905 14.903-10.487-9.4496 13.888 17.372-2.3346-15.743 13.526z" fill="#ffd513" stroke-width="0"/>
 <path d="m51.947 30.996-17.408-9.2149 15.536 4.6994-13.01-15.469 14.708 10.107-4.8098-15.298 6.9434 13.837 4.0953-11.651-0.82844 13.749 9.8987-9.5005-6.7595 12.79 13.114-5.2551-12.375 11.345z" fill="#ff5f5f" stroke-width="0"/>
 <path d="m51.947 30.996-8.1321-5.8529 6.2594 1.3374-4.1274-7.5711 6.8508 4.2809-1.6262-6.837 3.2002 6.184 2.0765-6.7252 0.31701 7.3701 4.8667-3.935c-0.8548 2.4228-1.7893 4.8125-2.7098 7.2081l8.7831-2.99-10.336 7.4999z" fill="#fffefd" stroke-width="0"/>
</svg>
