<svg version="1.1" viewBox="0 0 90 31" xmlns="http://www.w3.org/2000/svg">
 <path d="m4.9671 30.869h77v-2c1-0.3334 3.3-1.2 4.5-2s2.8333-2.3334 3.5-3v-3h-13v-0.5l5.5-3.5001-0.5-0.49995-5.5 2.5h-5v2h-1.6875v-2.5001l5.1875-2.5-0.5-0.49995-4 1.5-5.5-5e-5v3.0001h-2v-6h-2.5v2h-6.5c-0.6667-1-1.8-2-3-2h-2.5v7.0001h-4v-7.5h-4.5v4.5h-1v-10c-1.118-1.201e-4 -3 0-4.5 0v9.0001c-1.1667-0.16666-3.8-0.2-5 1s-1.5 2.5-1.5 3h-1.5v-4.0001h-5l-5-1.5-0.5 0.49995 5.5 2.5v2.5001h-1.5v-2.0001h-5.5l-4.5-2-0.5 0.49995 4.5 2.5v1.0001h-14l5.5 7z" fill="#adff2f"/>
</svg>
