<svg width="90" height="23" viewBox="0 0 90 23" xmlns="http://www.w3.org/2000/svg">
<path d="M5 23.0001H82V21.0001C83 20.6667 85.3 19.8001 86.5 19.0001C87.7 18.2001 89.3333 16.6667 90 16.0001V13.0001H77V12.5001L82.5 9L82 8.50005L76.5 11.0001H71.5V13.0001H69.8125V10.5L75 8L74.5 7.50005L70.5 9.00005L65 9V12.0001H63V6.00005H60.5V8.00005H54C53.3333 7.00005 52.2 6 51 6H48.5V13.0001H44.5V5.50005H40V10.0001H39V0C37.882 -0.000120102 36 0 34.5 0V3.00005V9.00005C33.3333 8.83339 30.7 8.80005 29.5 10.0001C28.3 11.2001 28 12.5001 28 13.0001H26.5V9H21.5L16.5 7.50005L16 8L21.5 10.5V11.5001V13.0001H20V11H14.5L10 9.00005L9.5 9.5L14 12V13.0001H0L5.5 20.0001L5 23.0001Z" fill="#adff2f"/>
</svg>
