<svg aria-hidden="true" style="position: absolute; width: 0; height: 0; overflow: hidden;" version="1.1" xmlns="http://www.w3.org/2000/svg" xmlns:xlink="http://www.w3.org/1999/xlink">
<defs>

<symbol id="heading-battleship" width="100%" height="100%" version="1.1" viewBox="0 0 148.43 13.229" xmlns="http://www.w3.org/2000/svg">
 <g transform="translate(-1.3263 -2.319)" stroke-width=".26458" aria-label="Battleship game">
  <path d="m10.321 3.7453c0-0.084667-0.0635-0.21167-0.16933-0.35983-0.10583-0.14817-0.23283-0.29633-0.35983-0.4445-0.127-0.127-0.27517-0.254-0.42333-0.35983-0.14817-0.084667-0.254-0.14817-0.33867-0.14817h-3.5983v2.8363h1.6933v2.3283h-1.6933v2.8363h1.6933v2.3495h-1.6933v2.8363h3.5983c0.084667 0 0.1905-0.04233 0.33867-0.14817 0.14817-0.08467 0.29633-0.21167 0.42333-0.35983 0.127-0.127 0.254-0.27517 0.35983-0.42333 0.10583-0.14817 0.16933-0.27517 0.16933-0.381v-3.9582c0-0.21167-0.08467-0.42333-0.23283-0.61383-0.14817-0.16933-0.29633-0.33867-0.4445-0.508l-0.14817-0.14817 0.254-0.254c0.084667-0.10583 0.1905-0.21167 0.27517-0.33867 0.08467-0.10583 0.14817-0.21167 0.21167-0.33867 0.04233-0.127 0.08467-0.23283 0.08467-0.33867zm-8.8477 11.875h3.1962v-13.187h-3.1962z"/>
  <path d="m18.788 2.4329 3.4713 13.187h-3.4502l-3.3867-13.187zm-1.1218 11.663h-2.3072l-0.42333 1.524h-3.429l3.5137-11.832 1.4817 5.7785-0.40217 1.6933h0.889z"/>
  <path d="m24.503 15.62v-13.187h3.1962v13.187zm-2.8575-10.308v-2.8787h2.0955v2.8787zm9.017-2.8787v2.8787h-2.1802v-2.8787z"/>
  <path d="m35.256 15.62v-13.187h3.1962v13.187zm-2.8575-10.308v-2.8787h2.0955v2.8787zm9.017-2.8787v2.8787h-2.1802v-2.8787z"/>
  <path d="m50.919 12.783h-3.81v2.8363h3.81zm-7.7682 2.8363h3.1962v-13.187h-3.1962z"/>
  <path d="m60.423 12.783h-3.81v2.8363h3.81zm-7.7682 2.8363h3.1962v-13.187h-3.1962zm7.7682-13.187h-3.81v2.8363h3.81zm0 5.1647h-3.81v2.8363h3.81z"/>
  <path d="m62.158 8.8464 5.1223 2.3707v4.4027h1.905c0.08467 0 0.1905-0.04233 0.33867-0.14817 0.14817-0.08467 0.29633-0.21167 0.42333-0.35983 0.127-0.127 0.254-0.27517 0.35983-0.42333 0.10583-0.14817 0.16933-0.27517 0.16933-0.381v-4.953l-5.1223-2.4342v-4.4873h-1.905c-0.08467 0-0.21167 0.0635-0.35983 0.14817-0.14817 0.10583-0.29633 0.23283-0.42333 0.35983-0.127 0.14817-0.254 0.29633-0.35983 0.4445-0.10583 0.14817-0.14817 0.27517-0.14817 0.35983zm8.3185-2.3283v-2.7728c0-0.084667-0.0635-0.21167-0.16933-0.35983-0.10583-0.14817-0.23283-0.29633-0.35983-0.4445-0.127-0.127-0.27517-0.254-0.42333-0.35983-0.14817-0.084667-0.254-0.14817-0.33867-0.14817h-3.0692v2.8363c0.29633 0 0.55033 0.14817 0.80433 0.40217 0.23283 0.27517 0.35983 0.55033 0.35983 0.84667zm-8.3185 5.0165v2.7728c0 0.10583 0.04233 0.23283 0.14817 0.381 0.10583 0.14817 0.23283 0.29633 0.35983 0.42333 0.127 0.14817 0.27517 0.27517 0.42333 0.35983 0.14817 0.10583 0.27517 0.14817 0.35983 0.14817h3.0692v-2.8363c-0.40217 0-0.6985-0.127-0.889-0.381-0.1905-0.254-0.27517-0.52917-0.27517-0.86784z"/>
  <path d="m81.06 2.4329h-3.1962v5.1858h-1.6933v2.8363h1.6933v5.1647h3.1962zm-8.8477 13.187h3.1962v-13.187h-3.1962z"/>
  <path d="m82.796 15.62h3.1962v-13.187h-3.1962z"/>
  <path d="m96.575 3.7453c0-0.084667-0.0635-0.21167-0.16933-0.35983-0.10583-0.14817-0.23283-0.29633-0.35983-0.4445-0.127-0.127-0.27517-0.254-0.42333-0.35983-0.14817-0.084667-0.254-0.14817-0.33867-0.14817h-3.5983v2.8363h1.6933v2.794h-1.6933v2.8363h3.5983c0.08467 0 0.1905-0.04233 0.33867-0.14817 0.14817-0.08467 0.29633-0.21167 0.42333-0.35983 0.127-0.127 0.254-0.27517 0.35983-0.42333 0.10583-0.14817 0.16933-0.27517 0.16933-0.381zm-8.8477 11.875h3.1962v-13.187h-3.1962z"/>
  <path d="m112.98 2.4329h-4.0428v2.8363h4.0428zm-8.8477 1.3123v10.562c0 0.10583 0.0423 0.23283 0.14816 0.381 0.10584 0.14817 0.23284 0.29633 0.35984 0.42333 0.127 0.14817 0.27516 0.27517 0.42333 0.35983 0.14817 0.10583 0.27517 0.14817 0.35983 0.14817h2.7517v-2.8363h-0.84667v-7.5142h0.84667v-2.8363h-2.7517c-0.0847 0-0.21166 0.0635-0.35983 0.14817-0.14817 0.10583-0.29633 0.23283-0.42333 0.35983-0.127 0.14817-0.254 0.29633-0.35984 0.4445-0.10583 0.14817-0.14816 0.27517-0.14816 0.35983zm8.8477 5.1647c0-0.084667-0.0635-0.21167-0.16934-0.35983-0.10583-0.14817-0.23283-0.29633-0.35983-0.4445-0.127-0.127-0.27517-0.254-0.42333-0.35983-0.14817-0.084667-0.25401-0.14817-0.33867-0.14817h-2.7517v2.8363h0.84666v2.3495h-0.84666v2.8363h2.7517c0.0847 0 0.1905-0.04233 0.33867-0.14817 0.14816-0.08467 0.29633-0.21167 0.42333-0.35983 0.127-0.127 0.254-0.27517 0.35983-0.42333 0.10584-0.14817 0.16934-0.27517 0.16934-0.381z"/>
  <path d="m121.45 2.4329 3.4713 13.187h-3.4502l-3.3867-13.187zm-1.1218 11.663h-2.3072l-0.42333 1.524h-3.429l3.5137-11.832 1.4817 5.7785-0.40217 1.6933h0.88901z"/>
  <path d="m126.21 15.62v-12.848l3.1962 8.255v4.5932zm7.4084-5.8632 2.7305-7.3237h3.2597l-4.4873 11.599zm1.5028 5.8632h-3.2385l-5.0588-13.187h3.3443zm5.1647-12.912v12.912h-3.2173v-4.6567z"/>
  <path d="m149.79 12.783h-3.81v2.8363h3.81zm-7.7682 2.8363h3.1962v-13.187h-3.1962zm7.7682-13.187h-3.81v2.8363h3.81zm0 5.1647h-3.81v2.8363h3.81z"/>
 </g>
 <defs>
        <linearGradient id="MyGradient">
          <stop offset="5%" stop-color="#F60" />
          <stop offset="95%" stop-color="#FF6" />
        </linearGradient>
</defs>
</symbol>

</defs>
</svg>